<svg xmlns="http://www.w3.org/2000/svg" width="29" height="29" viewBox="0 0 29 29" fill="none">
<path d="M25.375 13.8958C25.3792 15.4906 25.0065 17.0639 24.2875 18.4875C23.4349 20.1933 22.1243 21.6281 20.5023 22.6312C18.8804 23.6342 17.0112 24.1659 15.1042 24.1666C13.5093 24.1708 11.9361 23.7982 10.5125 23.0791L3.625 25.375L5.92083 18.4875C5.20179 17.0639 4.82918 15.4906 4.83333 13.8958C4.83407 11.9888 5.36574 10.1196 6.36879 8.49764C7.37183 6.87569 8.80664 5.56503 10.5125 4.71247C11.9361 3.99343 13.5093 3.62082 15.1042 3.62497H15.7083C18.2269 3.76392 20.6058 4.82698 22.3894 6.61059C24.173 8.39421 25.2361 10.7731 25.375 13.2916V13.8958Z" fill="#578067" stroke="#578067" stroke-width="2" stroke-linecap="round"/>
</svg>