<svg width="48" height="48" viewBox="0 0 48 48" fill="none" xmlns="http://www.w3.org/2000/svg">
<g clip-path="url(#clip0_501_1026)">
<path d="M24.4048 24.8258C24.4048 25.5085 23.7058 26.8041 23.7058 29.2852C23.7058 30.2958 24.2301 32.3754 24.2301 33.5C24.2301 34.33 24.2301 35.1765 24.2301 36.018C24.2301 40.4895 23.7602 45.9257 24.2301 47.951" stroke="#4A4A4A" stroke-width="0.458827" stroke-linecap="round" stroke-linejoin="round"/>
<path d="M24.2299 43.0371C25.8822 44.2711 38.0203 41.8216 36.6765 31.678C33.5202 31.7777 24.2299 32.9041 24.2299 43.0371Z" fill="#BCDAC8" stroke="#4A4A4A" stroke-width="0.458827" stroke-linecap="round" stroke-linejoin="round"/>
<path d="M24.0321 43.347C22.8242 44.563 9.82994 42.1315 11.1737 31.9879C14.3301 32.0876 24.0321 31.7242 24.0321 43.347Z" fill="#BCDAC8" stroke="#4A4A4A" stroke-width="0.458827" stroke-linecap="round" stroke-linejoin="round"/>
<path d="M19.5592 11.8751L28.2184 3.4042C28.3564 3.26925 28.5887 3.33189 28.6411 3.51818L29.8919 7.96274L30.2337 9.17728L30.5755 10.3918L30.9173 11.6064L31.2591 12.8209L31.932 15.2117C33.0639 19.2337 30.6801 23.3933 26.646 24.4357C24.1144 25.0898 21.422 24.3638 19.5545 22.5233C16.5787 19.5905 16.5808 14.7886 19.5592 11.8751Z" fill="#BCDAC8"/>
<path d="M29.8919 7.96274L28.6411 3.51818C28.5887 3.33189 28.3564 3.26925 28.2184 3.4042L19.5592 11.8751C16.5808 14.7886 16.5787 19.5905 19.5545 22.5233V22.5233C21.422 24.3638 24.1144 25.0898 26.646 24.4357V24.4357C30.6801 23.3933 33.0639 19.2337 31.932 15.2117L31.2591 12.8209L30.9173 11.6064L30.5755 10.3918" stroke="#4A4A4A" stroke-width="0.458827" stroke-linecap="round" stroke-linejoin="round"/>
<path d="M25 16L25.1593 16.1593C25.6236 16.6236 26.3764 16.6236 26.8407 16.1593L27 16" stroke="#4A4A4A" stroke-width="0.611769" stroke-linecap="round" stroke-linejoin="round"/>
<ellipse cx="28.5844" cy="14.8687" rx="0.777548" ry="0.782564" fill="#4A4A4A"/>
<ellipse cx="22.3642" cy="14.8687" rx="0.777548" ry="0.782564" fill="#4A4A4A"/>
</g>
<defs>
<clipPath id="clip0_501_1026">
<rect width="48" height="48" fill="white"/>
</clipPath>
</defs>
</svg>
